#!OML:ASF I:\Actors\actors\Patient Classification 1\Patient 1\Session 1\Subject1.ASF
:FULLY-SPECIFIED
:DEGREES
827
root -0.338828 17.5379 7.7946 6.51033 -7.29057 -7.9777
lowerback 1.59545 3.07235 6.11602
upperback -8.25545 4.56776 0.342726
thorax -9.20557 1.79127 -3.46041
lowerneck -11.888 3.73063 7.29223
upperneck 33.9004 4.01744 -1.04935
head 13.6424 2.57739 -1.08114
rclavicle 2.68359e-014 7.95139e-015
rhumerus -22.1787 68.4152 -102.967
rradius 95.7333
rwrist -1.56074
rhand -15.7548 -58.9566
rfingers 7.12502
rthumb 10.4367 -1168.68
lclavicle 2.68359e-014 7.95139e-015
lhumerus -54.5755 -16.2244 99.2219
lradius 112.188
lwrist 20.3517
lhand -46.0421 -11.6703
lfingers 7.12502
lthumb -18.7862 17.4425
rfemur -0.056273 23.4968 25.4113
rtibia 1.73014
rfoot -11.9977 -17.8184
rtoes -4.18243
lfemur 15.02 -45.1944 -23.1375
ltibia -4.95295
lfoot -35.8057 57.7136
ltoes 22.3248
828
root -0.33778 17.5374 7.79421 6.52376 -7.25642 -7.97537
lowerback 1.51735 3.0902 6.11773
upperback -8.2268 4.58372 0.334508
thorax -9.12473 1.80263 -3.46489
lowerneck -11.8975 3.65707 7.23404
upperneck 33.8522 3.92101 -1.04758
head 13.6156 2.52715 -1.08542
rclavicle 2.51463e-014 1.90833e-014
rhumerus -22.3289 67.795 -103.284
rradius 95.9571
rwrist -3.52228
rhand -15.526 -59.4016
rfingers 7.12502
rthumb 10.6574 -1169.11
lclavicle 2.51463e-014 1.90833e-014
lhumerus -54.4953 -16.3139 99.216
lradius 112.095
lwrist 20.3931
lhand -46.0998 -11.6683
lfingers 7.12502
lthumb -18.8417 17.4392
rfemur -0.0698894 23.482 25.3958
rtibia 1.71992
rfoot -11.9846 -17.8415
rtoes -4.14864
lfemur 14.937 -45.1258 -23.0649
ltibia -4.95044
lfoot -35.5007 57.6773
ltoes 22.0826
829
root -0.336944 17.5357 7.79294 6.55301 -7.23717 -7.94056
lowerback 1.11777 3.12384 6.02123
upperback -8.02653 4.58442 0.370371
thorax -8.67381 1.83416 -3.33888
lowerneck -11.8602 3.60005 7.22978
upperneck 33.5311 3.88332 -1.18734
head 13.4663 2.48673 -1.14743
rclavicle 6.16232e-015 -3.97569e-015
rhumerus -22.1987 66.1071 -103.469
rradius 96.1952
rwrist -6.52213
rhand -14.2015 -59.1598
rfingers 7.12502
rthumb 11.9348 -1168.8
lclavicle 6.16232e-015 -3.97569e-015
lhumerus -54.0852 -16.4124 99.2107
lradius 111.921
lwrist 20.4938
lhand -46.1431 -11.7155
lfingers 7.12502
lthumb -18.8833 17.3879
rfemur -0.12155 23.4281 25.3276
rtibia 1.71103
rfoot -11.9487 -17.8192
rtoes -4.20013
lfemur 14.8273 -45.0719 -23.0265
ltibia -4.92442
lfoot -35.3124 57.6333
ltoes 22.0467
830
root -0.336746 17.5341 7.79085 6.59214 -7.22431 -7.93125
lowerback 1.41219 3.13478 6.05343
upperback -8.2302 4.62932 0.304653
thorax -9.06282 1.83134 -3.45742
lowerneck -11.6986 3.52751 7.27219
upperneck 33.4617 3.7777 -1.18568
head 13.3964 2.44628 -1.17293
rclavicle -5.96354e-016 2.38542e-015
rhumerus -20.736 66.5813 -101.994
rradius 97.2212
rwrist -13.2466
rhand -13.4892 -60.1222
rfingers 7.12502
rthumb 12.6216 -1169.72
lclavicle -5.96354e-016 2.38542e-015
lhumerus -54.3471 -16.4992 99.2365
lradius 111.848
lwrist 20.7808
lhand -46.0725 -11.9511
lfingers 7.12502
lthumb -18.8154 17.1589
rfemur -0.20616 23.3743 25.2816
rtibia 1.74521
rfoot -11.9538 -17.7485
rtoes -4.35327
lfemur 14.7246 -45.0689 -22.9649
ltibia -4.89759
lfoot -35.2663 57.6122
ltoes 22.0071
831
root -0.336864 17.5334 7.789 6.60702 -7.22196 -7.94557
lowerback 1.4193 3.13137 6.07607
upperback -8.24549 4.62664 0.294282
thorax -9.08213 1.82678 -3.48179
lowerneck -11.673 3.50113 7.23746
upperneck 33.3979 3.73813 -1.15467
head 13.3592 2.42759 -1.16124
rclavicle -3.4191e-014 -3.18055e-015
rhumerus -19.1783 66.1386 -100.575
rradius 98.4423
rwrist -20.177
rhand -12.8761 -61.3696
rfingers 7.12502
rthumb 13.2126 -1349.07
lclavicle -3.4191e-014 -3.18055e-015
lhumerus -54.2974 -16.496 99.2184
lradius 111.777
lwrist 21.1038
lhand -45.9144 -12.1831
lfingers 7.12502
lthumb -18.6634 16.9416
rfemur -0.252488 23.3153 25.2764
rtibia 1.77002
rfoot -11.9439 -17.6856
rtoes -4.50544
lfemur 14.6949 -45.1021 -22.9306
ltibia -4.88514
lfoot -35.4297 57.5971
ltoes 22.1534
832
root -0.337168 17.533 7.78738 6.60677 -7.18474 -7.89552
lowerback 1.39425 3.09889 5.92323
upperback -8.24263 4.57514 0.344862
thorax -9.08268 1.8153 -3.33822
lowerneck -11.7165 3.5169 7.16215
upperneck 33.4338 3.77275 -1.13951
head 13.3832 2.43554 -1.1363
rclavicle -5.1684e-015 2.70347e-014
rhumerus -17.6598 65.2002 -99.2041
rradius 99.7911
rwrist -26.8337
rhand -12.3378 -62.7337
rfingers 7.12502
rthumb 13.7315 -1347.74
lclavicle -5.1684e-015 2.70347e-014
lhumerus -54.205 -16.3749 99.2943
lradius 111.7
lwrist 21.2401
lhand -45.7611 -12.2813
lfingers 7.12502
lthumb -18.5159 16.8575
rfemur -0.261342 23.2314 25.2086
rtibia 1.75285
rfoot -11.891 -17.6649
rtoes -4.81582
lfemur 14.6337 -45.0887 -22.9458
ltibia -4.85483
lfoot -35.5491 57.5258
ltoes 22.354
833
root -0.336414 17.5323 7.78559 6.60757 -7.0832 -7.78632
lowerback 1.35147 3.04593 5.62966
upperback -8.24115 4.48934 0.436063
thorax -9.08893 1.79923 -3.07032
lowerneck -11.7592 3.55204 7.11946
upperneck 33.4678 3.85954 -1.21606
head 13.4115 2.45865 -1.14526
rclavicle 1.13307e-014 3.18055e-015
rhumerus -15.7019 64.0302 -97.3174
rradius 101.348
rwrist -33.5592
rhand -11.4064 -64.185
rfingers 7.12502
rthumb 14.6289 -1346.35
lclavicle 1.13307e-014 3.18055e-015
lhumerus -54.1654 -16.2138 99.4885
lradius 111.635
lwrist 21.2264
lhand -45.7665 -12.4375
lfingers 7.12502
lthumb -18.5211 16.7008
rfemur -0.250121 23.1853 25.0723
rtibia 1.69745
rfoot -11.8877 -17.7105
rtoes -4.90484
lfemur 14.5213 -45.0894 -22.9993
ltibia -4.79427
lfoot -35.3455 57.4804
ltoes 22.163
834
root -0.333265 17.5304 7.78538 6.57007 -6.99041 -7.67577
lowerback 1.32209 2.9988 5.36376
upperback -8.21315 4.41313 0.526954
thorax -9.07032 1.78705 -2.81874
lowerneck -11.7834 3.58266 7.09362
upperneck 33.4644 3.94383 -1.31472
head 13.4205 2.47943 -1.16658
rclavicle 4.52235e-014 2.38542e-014
rhumerus -13.426 62.5684 -95.0601
rradius 103.098
rwrist -39.7138
rhand -9.80147 -66.2806
rfingers 7.12502
rthumb 16.1748 -1344.37
lclavicle 4.52235e-014 2.38542e-014
lhumerus -54.1829 -16.0789 99.7129
lradius 111.622
lwrist 21.1046
lhand -45.8499 -12.5791
lfingers 7.12502
lthumb -18.6013 16.5516
rfemur -0.167581 23.1365 24.9428
rtibia 1.60526
rfoot -11.9272 -17.7343
rtoes -4.6815
lfemur 14.6236 -45.3085 -23.2679
ltibia -4.74356
lfoot -35.4168 57.6003
ltoes 22.0888
835
root -0.330143 17.5293 7.78445 6.51549 -6.91178 -7.64263
lowerback 1.35738 2.95455 5.29354
upperback -8.186 4.35318 0.560231
thorax -9.0729 1.76462 -2.74147
lowerneck -11.7869 3.60805 7.10598
upperneck 33.442 3.98357 -1.3329
head 13.4145 2.49569 -1.16977
rclavicle 1.27222e-014 -2.14687e-014
rhumerus -11.0041 60.8778 -92.7119
rradius 104.814
rwrist -44.1826
rhand -10.6086 -66.9206
rfingers 7.12502
rthumb 15.3975 -1343.67
lclavicle 1.27222e-014 -2.14687e-014
lhumerus -54.2396 -16.0222 99.8095
lradius 111.659
lwrist 20.9356
lhand -45.9022 -12.6996
lfingers 7.12502
lthumb -18.6517 16.4262
rfemur -0.0821984 23.0661 24.9138
rtibia 1.55938
rfoot -11.9657 -17.721
rtoes -4.4205
lfemur 14.8815 -45.6735 -23.5718
ltibia -4.75101
lfoot -35.8641 57.8135
ltoes 22.3724
